<svg width="512" height="512" viewBox="0 0 512 512" fill="none" xmlns="http://www.w3.org/2000/svg">
  <rect width="512" height="512" fill="#374F29"/>
  <path d="M256 64C194.142 64 144 114.144 144 176C144 237.856 194.142 288 256 288C317.858 288 368 237.856 368 176C368 114.144 317.858 64 256 64ZM112 176C112 96.4711 176.471 32 256 32C335.529 32 400 96.4711 400 176C400 255.529 335.529 320 256 320C176.471 320 112 255.529 112 176Z" fill="white"/>
  <path d="M256 352C194.142 352 144 402.144 144 464H112C112 384.471 176.471 320 256 320C335.529 320 400 384.471 400 464H368C368 402.144 317.858 352 256 352Z" fill="white"/>
</svg>